
22	class="noteon-0 noteoff-0d167"
25	class="noteon-0d167 noteoff-0d333"
27	class="noteon-0d167 noteoff-0d833"
26	class="noteon-0d167 noteoff-0d333"
29	class="noteon-0d333 noteoff-0d5"
30	class="noteon-0d333 noteoff-0d5"
34	class="noteon-0d5 noteoff-0d667"
33	class="noteon-0d5 noteoff-0d833"
37	class="noteon-0d667 noteoff-0d833"
38	class="noteon-0d833 noteoff-1"
39	class="noteon-0d833 noteoff-1"
40	class="noteon-0d833 noteoff-1"
47	class="noteon-1 noteoff-1d167"
53	class="noteon-1d167 noteoff-1d333"
50	class="noteon-1d167 noteoff-1d833"
51	class="noteon-1d167 noteoff-1d333"
57	class="noteon-1d333 noteoff-1d5"
56	class="noteon-1d333 noteoff-1d5"
61	class="noteon-1d5 noteoff-1d667"
59	class="noteon-1d5 noteoff-1d833"
64	class="noteon-1d667 noteoff-1d833"
65	class="noteon-1d833 noteoff-2"
67	class="noteon-1d833 noteoff-2"
66	class="noteon-1d833 noteoff-2"
75	class="noteon-2 noteoff-2d167"
81	class="noteon-2d167 noteoff-2d333"
80	class="noteon-2d167 noteoff-2d833"
78	class="noteon-2d167 noteoff-2d333"
83	class="noteon-2d333 noteoff-2d5"
84	class="noteon-2d333 noteoff-2d5"
86	class="noteon-2d5 noteoff-2d833"
88	class="noteon-2d5 noteoff-2d667"
90	class="noteon-2d667 noteoff-2d833"
92	class="noteon-2d833 noteoff-3"
93	class="noteon-2d833 noteoff-3"
91	class="noteon-2d833 noteoff-3"
98	class="noteon-3 noteoff-3d167"
104	class="noteon-3d167 noteoff-3d333"
103	class="noteon-3d167 noteoff-3d833"
105	class="noteon-3d167 noteoff-3d333"
109	class="noteon-3d333 noteoff-3d5"
110	class="noteon-3d333 noteoff-3d5"
114	class="noteon-3d5 noteoff-3d667"
112	class="noteon-3d5 noteoff-3d833"
116	class="noteon-3d667 noteoff-3d833"
118	class="noteon-3d833 noteoff-4"
119	class="noteon-3d833 noteoff-4"
117	class="noteon-3d833 noteoff-4"
125	class="noteon-4 noteoff-4d167"
134	class="noteon-4d167 noteoff-4d333"
130	class="noteon-4d167 noteoff-4d833"
131	class="noteon-4d167 noteoff-4d333"
136	class="noteon-4d333 noteoff-4d5"
135	class="noteon-4d333 noteoff-4d5"
141	class="noteon-4d5 noteoff-4d667"
138	class="noteon-4d5 noteoff-4d833"
142	class="noteon-4d667 noteoff-4d833"
144	class="noteon-4d833 noteoff-5"
145	class="noteon-4d833 noteoff-5"
143	class="noteon-4d833 noteoff-5"
153	class="noteon-5 noteoff-5d167"
159	class="noteon-5d167 noteoff-5d333"
157	class="noteon-5d167 noteoff-5d833"
158	class="noteon-5d167 noteoff-5d333"
164	class="noteon-5d333 noteoff-5d5"
163	class="noteon-5d333 noteoff-5d5"
168	class="noteon-5d5 noteoff-5d667"
166	class="noteon-5d5 noteoff-5d833"
170	class="noteon-5d667 noteoff-5d833"
171	class="noteon-5d833 noteoff-6"
173	class="noteon-5d833 noteoff-6"
172	class="noteon-5d833 noteoff-6"

