
191	class="noteon-6 noteoff-6d167"
197	class="noteon-6d167 noteoff-6d333"
195	class="noteon-6d167 noteoff-6d833"
194	class="noteon-6d167 noteoff-6d333"
200	class="noteon-6d333 noteoff-6d5"
201	class="noteon-6d333 noteoff-6d5"
202	class="noteon-6d5 noteoff-6d667"
203	class="noteon-6d5 noteoff-6d833"
207	class="noteon-6d667 noteoff-6d833"
208	class="noteon-6d833 noteoff-7"
209	class="noteon-6d833 noteoff-7"
210	class="noteon-6d833 noteoff-7"
214	class="noteon-7 noteoff-7d167"
224	class="noteon-7d167 noteoff-7d333"
223	class="noteon-7d167 noteoff-7d833"
221	class="noteon-7d167 noteoff-7d333"
227	class="noteon-7d333 noteoff-7d5"
226	class="noteon-7d333 noteoff-7d5"
232	class="noteon-7d5 noteoff-7d667"
229	class="noteon-7d5 noteoff-7d833"
233	class="noteon-7d667 noteoff-7d833"
235	class="noteon-7d833 noteoff-8"
234	class="noteon-7d833 noteoff-8"
236	class="noteon-7d833 noteoff-8"
243	class="noteon-8 noteoff-8d167"
246	class="noteon-8d167 noteoff-8d333"
247	class="noteon-8d167 noteoff-8d833"
248	class="noteon-8d167 noteoff-8d333"
252	class="noteon-8d333 noteoff-8d5"
253	class="noteon-8d333 noteoff-8d5"
254	class="noteon-8d5 noteoff-8d833"
257	class="noteon-8d5 noteoff-8d667"
259	class="noteon-8d667 noteoff-8d833"
261	class="noteon-8d833 noteoff-9"
260	class="noteon-8d833 noteoff-9"
262	class="noteon-8d833 noteoff-9"
266	class="noteon-9 noteoff-9d167"
276	class="noteon-9d167 noteoff-9d333"
274	class="noteon-9d167 noteoff-9d833"
272	class="noteon-9d167 noteoff-9d333"
279	class="noteon-9d333 noteoff-9d5"
278	class="noteon-9d333 noteoff-9d5"
283	class="noteon-9d5 noteoff-9d667"
281	class="noteon-9d5 noteoff-9d833"
285	class="noteon-9d667 noteoff-9d833"
288	class="noteon-9d833 noteoff-10"
287	class="noteon-9d833 noteoff-10"
286	class="noteon-9d833 noteoff-10"
294	class="noteon-10 noteoff-10d167"
300	class="noteon-10d167 noteoff-10d333"
302	class="noteon-10d167 noteoff-10d833"
299	class="noteon-10d167 noteoff-10d333"
304	class="noteon-10d333 noteoff-10d5"
305	class="noteon-10d333 noteoff-10d5"
309	class="noteon-10d5 noteoff-10d667"
306	class="noteon-10d5 noteoff-10d833"
311	class="noteon-10d667 noteoff-10d833"
312	class="noteon-10d833 noteoff-11"
313	class="noteon-10d833 noteoff-11"
314	class="noteon-10d833 noteoff-11"
319	class="noteon-11 noteoff-11d167"
324	class="noteon-11d167 noteoff-11d333"
325	class="noteon-11d167 noteoff-11d833"
326	class="noteon-11d167 noteoff-11d333"
330	class="noteon-11d333 noteoff-11d5"
331	class="noteon-11d333 noteoff-11d5"
334	class="noteon-11d5 noteoff-11d667"
333	class="noteon-11d5 noteoff-11d833"
337	class="noteon-11d667 noteoff-11d833"
338	class="noteon-11d833 noteoff-12"
340	class="noteon-11d833 noteoff-12"
339	class="noteon-11d833 noteoff-12"
345	class="noteon-12 noteoff-12d167"
350	class="noteon-12d167 noteoff-12d333"
353	class="noteon-12d167 noteoff-12d833"
354	class="noteon-12d167 noteoff-12d333"
356	class="noteon-12d333 noteoff-12d5"
357	class="noteon-12d333 noteoff-12d5"
362	class="noteon-12d5 noteoff-12d667"
358	class="noteon-12d5 noteoff-12d833"
364	class="noteon-12d667 noteoff-12d833"
366	class="noteon-12d833 noteoff-13"
365	class="noteon-12d833 noteoff-13"
367	class="noteon-12d833 noteoff-13"

