
573	class="noteon-20 noteoff-20d167"
583	class="noteon-20d167 noteoff-20d333"
580	class="noteon-20d167 noteoff-20d833"
582	class="noteon-20d167 noteoff-20d333"
586	class="noteon-20d333 noteoff-20d5"
585	class="noteon-20d333 noteoff-20d5"
591	class="noteon-20d5 noteoff-20d667"
587	class="noteon-20d5 noteoff-20d833"
592	class="noteon-20d667 noteoff-20d833"
595	class="noteon-20d833 noteoff-21"
593	class="noteon-20d833 noteoff-21"
594	class="noteon-20d833 noteoff-21"
600	class="noteon-21 noteoff-21d167"
609	class="noteon-21d167 noteoff-21d333"
608	class="noteon-21d167 noteoff-21d833"
606	class="noteon-21d167 noteoff-21d333"
612	class="noteon-21d333 noteoff-21d5"
611	class="noteon-21d333 noteoff-21d5"
614	class="noteon-21d5 noteoff-21d667"
617	class="noteon-21d5 noteoff-21d833"
618	class="noteon-21d667 noteoff-21d833"
620	class="noteon-21d833 noteoff-22"
619	class="noteon-21d833 noteoff-22"
621	class="noteon-21d833 noteoff-22"
629	class="noteon-22 noteoff-22d167"
627	class="noteon-22 noteoff-22d8"
625	class="noteon-22 noteoff-22d2"
634	class="noteon-22d167 noteoff-22d333"
635	class="noteon-22d2 noteoff-22d4"
636	class="noteon-22d333 noteoff-22d5"
639	class="noteon-22d4 noteoff-22d6"
638	class="noteon-22d4 noteoff-22d8"
642	class="noteon-22d6 noteoff-22d8"
645	class="noteon-22d8 noteoff-23"
644	class="noteon-22d8 noteoff-23"
643	class="noteon-22d8 noteoff-23"
651	class="noteon-23 noteoff-23d167"
659	class="noteon-23d167 noteoff-23d333"
658	class="noteon-23d167 noteoff-23d833"
655	class="noteon-23d167 noteoff-23d333"
662	class="noteon-23d333 noteoff-23d5"
661	class="noteon-23d333 noteoff-23d5"
665	class="noteon-23d5 noteoff-23d667"
663	class="noteon-23d5 noteoff-23d833"
668	class="noteon-23d667 noteoff-23d833"
670	class="noteon-23d833 noteoff-24"
669	class="noteon-23d833 noteoff-24"
671	class="noteon-23d833 noteoff-24"
678	class="noteon-24 noteoff-24d167"
680	class="noteon-24 noteoff-24d8"
682	class="noteon-24 noteoff-24d2"
685	class="noteon-24d167 noteoff-24d333"
686	class="noteon-24d2 noteoff-24d4"
687	class="noteon-24d333 noteoff-24d5"
690	class="noteon-24d4 noteoff-24d6"
688	class="noteon-24d4 noteoff-24d8"
693	class="noteon-24d6 noteoff-24d8"
694	class="noteon-24d8 noteoff-25"
696	class="noteon-24d8 noteoff-25"
695	class="noteon-24d8 noteoff-25"
704	class="noteon-25 noteoff-25d167"
702	class="noteon-25 noteoff-25d8"
701	class="noteon-25 noteoff-25d2"
709	class="noteon-25d167 noteoff-25d333"
710	class="noteon-25d2 noteoff-25d4"
711	class="noteon-25d333 noteoff-25d5"
715	class="noteon-25d4 noteoff-25d6"
712	class="noteon-25d4 noteoff-25d8"
717	class="noteon-25d6 noteoff-25d8"
720	class="noteon-25d8 noteoff-26"
718	class="noteon-25d8 noteoff-26"
719	class="noteon-25d8 noteoff-26"
725	class="noteon-26 noteoff-26d167"
734	class="noteon-26d167 noteoff-26d333"
732	class="noteon-26d167 noteoff-26d833"
730	class="noteon-26d167 noteoff-26d333"
736	class="noteon-26d333 noteoff-26d5"
737	class="noteon-26d333 noteoff-26d5"
738	class="noteon-26d5 noteoff-26d667"
740	class="noteon-26d5 noteoff-26d833"
743	class="noteon-26d667 noteoff-26d833"
745	class="noteon-26d833 noteoff-27"
744	class="noteon-26d833 noteoff-27"
746	class="noteon-26d833 noteoff-27"

