
762	class="noteon-27 noteoff-27d167"
769	class="noteon-27d167 noteoff-27d833"
768	class="noteon-27d167 noteoff-27d333"
772	class="noteon-27d167 noteoff-27d333"
773	class="noteon-27d333 noteoff-27d5"
774	class="noteon-27d333 noteoff-27d5"
776	class="noteon-27d5 noteoff-27d667"
778	class="noteon-27d5 noteoff-27d833"
780	class="noteon-27d667 noteoff-27d833"
781	class="noteon-27d833 noteoff-28"
783	class="noteon-27d833 noteoff-28"
782	class="noteon-27d833 noteoff-28"
789	class="noteon-28 noteoff-28d167"
796	class="noteon-28d167 noteoff-28d333"
795	class="noteon-28d167 noteoff-28d5"
793	class="noteon-28d167 noteoff-28d333"
799	class="noteon-28d333 noteoff-28d5"
798	class="noteon-28d333 noteoff-28d5"
802	class="noteon-28d5 noteoff-28d667"
804	class="noteon-28d5 noteoff-29"
807	class="noteon-28d667 noteoff-28d833"
808	class="noteon-28d833 noteoff-29"
809	class="noteon-28d833 noteoff-29"
811	class="noteon-29 noteoff-29d167"
817	class="noteon-29 noteoff-29d5"
819	class="noteon-29d167 noteoff-29d333"
820	class="noteon-29d167 noteoff-29d333"
822	class="noteon-29d167 noteoff-29d5"
824	class="noteon-29d333 noteoff-29d5"
825	class="noteon-29d333 noteoff-29d5"
831	class="noteon-29d5 noteoff-29d667"
829	class="noteon-29d5 noteoff-30"
833	class="noteon-29d667 noteoff-29d833"
834	class="noteon-29d833 noteoff-30"
835	class="noteon-29d833 noteoff-30"
839	class="noteon-30 noteoff-30d167"
837	class="noteon-30 noteoff-30d5"
845	class="noteon-30d167 noteoff-30d333"
846	class="noteon-30d167 noteoff-30d5"
847	class="noteon-30d167 noteoff-30d333"
851	class="noteon-30d333 noteoff-30d5"
850	class="noteon-30d333 noteoff-30d5"
857	class="noteon-30d5 noteoff-30d667"
855	class="noteon-30d5 noteoff-31"
859	class="noteon-30d667 noteoff-30d833"
860	class="noteon-30d833 noteoff-31"
861	class="noteon-30d833 noteoff-31"
864	class="noteon-31 noteoff-31d167"
863	class="noteon-31 noteoff-31d5"
874	class="noteon-31d167 noteoff-31d333"
873	class="noteon-31d167 noteoff-31d5"
872	class="noteon-31d167 noteoff-31d333"
876	class="noteon-31d333 noteoff-31d5"
877	class="noteon-31d333 noteoff-31d5"
880	class="noteon-31d5 noteoff-31d667"
882	class="noteon-31d5 noteoff-32"
883	class="noteon-31d667 noteoff-31d833"
884	class="noteon-31d833 noteoff-32"
885	class="noteon-31d833 noteoff-32"
892	class="noteon-32 noteoff-32d167"
897	class="noteon-32d167 noteoff-32d333"
899	class="noteon-32d333 noteoff-32d5"
901	class="noteon-32d5 noteoff-32d667"
903	class="noteon-32d667 noteoff-32d833"
905	class="noteon-32d833 noteoff-33"
916	class="noteon-33 noteoff-34"
915	class="noteon-33 noteoff-34"
914	class="noteon-33 noteoff-34"
913	class="noteon-33 noteoff-34"
912	class="noteon-33 noteoff-34"
911	class="noteon-33 noteoff-34"
910	class="noteon-33 noteoff-34"

