
386	class="noteon-13 noteoff-13d167"
390	class="noteon-13d167 noteoff-13d333"
392	class="noteon-13d167 noteoff-13d833"
394	class="noteon-13d167 noteoff-13d333"
395	class="noteon-13d333 noteoff-13d5"
396	class="noteon-13d333 noteoff-13d5"
398	class="noteon-13d5 noteoff-13d833"
401	class="noteon-13d5 noteoff-13d667"
402	class="noteon-13d667 noteoff-13d833"
404	class="noteon-13d833 noteoff-14"
403	class="noteon-13d833 noteoff-14"
405	class="noteon-13d833 noteoff-14"
409	class="noteon-14 noteoff-14d167"
418	class="noteon-14d167 noteoff-14d333"
420	class="noteon-14d167 noteoff-14d833"
416	class="noteon-14d167 noteoff-14d333"
422	class="noteon-14d333 noteoff-14d5"
421	class="noteon-14d333 noteoff-14d5"
424	class="noteon-14d5 noteoff-14d667"
426	class="noteon-14d5 noteoff-14d833"
428	class="noteon-14d667 noteoff-14d833"
429	class="noteon-14d833 noteoff-15"
430	class="noteon-14d833 noteoff-15"
431	class="noteon-14d833 noteoff-15"
434	class="noteon-15 noteoff-15d167"
442	class="noteon-15d167 noteoff-15d333"
444	class="noteon-15d167 noteoff-15d333"
446	class="noteon-15d167 noteoff-15d833"
447	class="noteon-15d333 noteoff-15d5"
448	class="noteon-15d333 noteoff-15d5"
451	class="noteon-15d5 noteoff-15d667"
450	class="noteon-15d5 noteoff-15d833"
454	class="noteon-15d667 noteoff-15d833"
456	class="noteon-15d833 noteoff-16"
455	class="noteon-15d833 noteoff-16"
457	class="noteon-15d833 noteoff-16"
462	class="noteon-16 noteoff-16d167"
470	class="noteon-16d167 noteoff-16d333"
468	class="noteon-16d167 noteoff-16d833"
472	class="noteon-16d167 noteoff-16d333"
473	class="noteon-16d333 noteoff-16d5"
474	class="noteon-16d333 noteoff-16d5"
477	class="noteon-16d5 noteoff-16d667"
475	class="noteon-16d5 noteoff-16d833"
481	class="noteon-16d667 noteoff-16d833"
482	class="noteon-16d833 noteoff-17"
484	class="noteon-16d833 noteoff-17"
483	class="noteon-16d833 noteoff-17"
490	class="noteon-17 noteoff-17d167"
489	class="noteon-17 noteoff-17d8"
496	class="noteon-17 noteoff-17d2"
498	class="noteon-17d167 noteoff-17d333"
499	class="noteon-17d2 noteoff-17d4"
500	class="noteon-17d333 noteoff-17d5"
504	class="noteon-17d4 noteoff-17d6"
501	class="noteon-17d4 noteoff-17d8"
506	class="noteon-17d6 noteoff-17d8"
508	class="noteon-17d8 noteoff-18"
507	class="noteon-17d8 noteoff-18"
509	class="noteon-17d8 noteoff-18"
518	class="noteon-18 noteoff-18d167"
521	class="noteon-18 noteoff-18d8"
513	class="noteon-18 noteoff-18d2"
522	class="noteon-18d167 noteoff-18d333"
523	class="noteon-18d2 noteoff-18d4"
524	class="noteon-18d333 noteoff-18d5"
527	class="noteon-18d4 noteoff-18d6"
528	class="noteon-18d4 noteoff-18d8"
530	class="noteon-18d6 noteoff-18d8"
531	class="noteon-18d8 noteoff-19"
533	class="noteon-18d8 noteoff-19"
532	class="noteon-18d8 noteoff-19"
539	class="noteon-19 noteoff-19d167"
537	class="noteon-19 noteoff-19d8"
544	class="noteon-19 noteoff-19d2"
546	class="noteon-19d167 noteoff-19d333"
547	class="noteon-19d2 noteoff-19d4"
548	class="noteon-19d333 noteoff-19d5"
551	class="noteon-19d4 noteoff-19d6"
549	class="noteon-19d4 noteoff-19d8"
554	class="noteon-19d6 noteoff-19d8"
557	class="noteon-19d8 noteoff-20"
555	class="noteon-19d8 noteoff-20"
556	class="noteon-19d8 noteoff-20"

