
105	class="noteon-16 noteoff-16d5"
106	class="noteon-16 noteoff-16d5"
109	class="noteon-16 noteoff-17d5"
110	class="noteon-16d5 noteoff-17"
111	class="noteon-16d5 noteoff-17"
112	class="noteon-17 noteoff-17d5"
113	class="noteon-17 noteoff-17d5"
114	class="noteon-16 noteoff-16"
115	class="noteon-17d5 noteoff-18"
116	class="noteon-17d5 noteoff-18"
117	class="noteon-17d5 noteoff-18"
118	class="noteon-18 noteoff-18d5"
119	class="noteon-18 noteoff-18d5"
121	class="noteon-18 noteoff-19d5"
122	class="noteon-18d5 noteoff-19"
123	class="noteon-18d5 noteoff-19"
124	class="noteon-19 noteoff-19d5"
125	class="noteon-19 noteoff-19d5"
126	class="noteon-19d5 noteoff-20"
127	class="noteon-19d5 noteoff-20"
128	class="noteon-19d5 noteoff-20"
132	class="noteon-20 noteoff-20d5"
130	class="noteon-20 noteoff-20d5"
133	class="noteon-20 noteoff-21"
135	class="noteon-20d5 noteoff-21"
134	class="noteon-20d5 noteoff-21"
137	class="noteon-21 noteoff-21d75"
139	class="noteon-21 noteoff-21d5"
138	class="noteon-21 noteoff-21d5"
140	class="noteon-21d5 noteoff-22"
141	class="noteon-21d5 noteoff-22"
142	class="noteon-21d75 noteoff-22"
145	class="noteon-22 noteoff-22d5"
144	class="noteon-22 noteoff-22d5"
146	class="noteon-22 noteoff-24"
149	class="noteon-22d5 noteoff-23"
148	class="noteon-22d5 noteoff-23"
151	class="noteon-23 noteoff-23d5"
150	class="noteon-23 noteoff-23d5"
153	class="noteon-23d5 noteoff-24"
152	class="noteon-23d5 noteoff-24"
158	class="noteon-24 noteoff-24d5"
157	class="noteon-24 noteoff-24d5"
155	class="noteon-24 noteoff-26"
160	class="noteon-24d5 noteoff-25"
159	class="noteon-24d5 noteoff-25"
161	class="noteon-25 noteoff-25d5"
162	class="noteon-25 noteoff-25d5"
164	class="noteon-25d5 noteoff-26"
163	class="noteon-25d5 noteoff-26"
166	class="noteon-26 noteoff-26d5"
167	class="noteon-26 noteoff-26d5"
169	class="noteon-26d5 noteoff-27"
170	class="noteon-26d5 noteoff-27"
171	class="noteon-27 noteoff-27d5"
172	class="noteon-27 noteoff-27d5"
173	class="noteon-27d5 noteoff-28"
174	class="noteon-27d5 noteoff-28"
176	class="noteon-28 noteoff-28d5"
180	class="noteon-28 noteoff-28d5"
182	class="noteon-28d5 noteoff-29"
181	class="noteon-28d5 noteoff-29"
184	class="noteon-29 noteoff-29d5"
183	class="noteon-29 noteoff-29d5"
186	class="noteon-29d5 noteoff-30"
185	class="noteon-29d5 noteoff-30"
189	class="noteon-30 noteoff-30d5"
187	class="noteon-30 noteoff-30d5"
190	class="noteon-30 noteoff-31d5"
193	class="noteon-30d5 noteoff-31"
192	class="noteon-30d5 noteoff-31"
195	class="noteon-31 noteoff-31d5"
194	class="noteon-31 noteoff-31d5"
198	class="noteon-31d5 noteoff-32"
197	class="noteon-31d5 noteoff-32"
196	class="noteon-31d5 noteoff-32"

