
12	class="noteon-0 noteoff-0d5"
13	class="noteon-0 noteoff-0d5"
16	class="noteon-0d5 noteoff-1"
17	class="noteon-0d5 noteoff-1"
18	class="noteon-1 noteoff-1d5"
19	class="noteon-1 noteoff-1d5"
20	class="noteon-1d5 noteoff-2"
21	class="noteon-1d5 noteoff-2"
22	class="noteon-2 noteoff-2d5"
23	class="noteon-2 noteoff-2d5"
25	class="noteon-2d5 noteoff-3"
26	class="noteon-2d5 noteoff-3"
27	class="noteon-3 noteoff-3d5"
28	class="noteon-3 noteoff-3d5"
29	class="noteon-3d5 noteoff-4"
30	class="noteon-3d5 noteoff-4"
35	class="noteon-4 noteoff-4d5"
34	class="noteon-4 noteoff-4d5"
37	class="noteon-4d5 noteoff-5"
38	class="noteon-4d5 noteoff-5"
39	class="noteon-5 noteoff-5d5"
40	class="noteon-5 noteoff-5d5"
41	class="noteon-5d5 noteoff-6"
42	class="noteon-5d5 noteoff-6"
43	class="noteon-6 noteoff-6d5"
44	class="noteon-6 noteoff-6d5"
46	class="noteon-6d5 noteoff-7"
47	class="noteon-6d5 noteoff-7"
48	class="noteon-7 noteoff-7d5"
49	class="noteon-7 noteoff-7d5"
50	class="noteon-7d5 noteoff-8"
51	class="noteon-7d5 noteoff-8"
55	class="noteon-8 noteoff-8d5"
54	class="noteon-8 noteoff-8d5"
57	class="noteon-8 noteoff-11d5"
59	class="noteon-8d5 noteoff-9"
58	class="noteon-8d5 noteoff-9"
60	class="noteon-9 noteoff-9d5"
61	class="noteon-9 noteoff-9d5"
63	class="noteon-9d5 noteoff-10"
62	class="noteon-9d5 noteoff-10"
66	class="noteon-10 noteoff-10d5"
65	class="noteon-10 noteoff-10d5"
68	class="noteon-10d5 noteoff-11"
67	class="noteon-10d5 noteoff-11"
70	class="noteon-11 noteoff-11d5"
69	class="noteon-11 noteoff-11d5"
72	class="noteon-11d5 noteoff-12"
71	class="noteon-11d5 noteoff-12"
73	class="noteon-11d5 noteoff-12"
75	class="noteon-12 noteoff-12d5"
76	class="noteon-12 noteoff-12d5"
78	class="noteon-12 noteoff-16"
79	class="noteon-12d5 noteoff-13"
80	class="noteon-12d5 noteoff-13"
82	class="noteon-13 noteoff-13d5"
81	class="noteon-13 noteoff-13d5"
83	class="noteon-13d5 noteoff-14"
84	class="noteon-13d5 noteoff-14"
88	class="noteon-14 noteoff-14d5"
89	class="noteon-14 noteoff-14d5"
91	class="noteon-14d5 noteoff-15"
90	class="noteon-14d5 noteoff-15"
93	class="noteon-15 noteoff-15d5"
92	class="noteon-15 noteoff-15d5"
95	class="noteon-15d5 noteoff-16"
94	class="noteon-15d5 noteoff-16"

