
309	class="noteon-48 noteoff-48d5"
311	class="noteon-48 noteoff-48d5"
314	class="noteon-48d5 noteoff-49"
315	class="noteon-48d5 noteoff-49"
316	class="noteon-49 noteoff-49d5"
317	class="noteon-49 noteoff-49d5"
319	class="noteon-49d5 noteoff-50"
320	class="noteon-49d5 noteoff-50"
321	class="noteon-50 noteoff-50d5"
323	class="noteon-50 noteoff-50d5"
324	class="noteon-50d5 noteoff-51"
325	class="noteon-50d5 noteoff-51"
327	class="noteon-51 noteoff-51d5"
326	class="noteon-51 noteoff-51d5"
329	class="noteon-51d5 noteoff-52"
328	class="noteon-51d5 noteoff-52"
332	class="noteon-52 noteoff-52d5"
331	class="noteon-52 noteoff-52d5"
335	class="noteon-52d5 noteoff-53"
336	class="noteon-52d5 noteoff-53"
341	class="noteon-53 noteoff-53d5"
337	class="noteon-53 noteoff-53d5"
339	class="noteon-53 noteoff-56"
343	class="noteon-53d5 noteoff-54"
342	class="noteon-53d5 noteoff-54"
346	class="noteon-54 noteoff-54d5"
344	class="noteon-54 noteoff-54d5"
348	class="noteon-54d5 noteoff-55"
347	class="noteon-54d5 noteoff-55"
349	class="noteon-55 noteoff-55d5"
350	class="noteon-55 noteoff-55d5"
351	class="noteon-55d5 noteoff-56"
352	class="noteon-55d5 noteoff-56"
354	class="noteon-56 noteoff-56d5"
356	class="noteon-56 noteoff-56d5"
357	class="noteon-56 noteoff-59d5"
358	class="noteon-56d5 noteoff-57"
359	class="noteon-56d5 noteoff-57"
360	class="noteon-57 noteoff-57d5"
361	class="noteon-57 noteoff-57d5"
363	class="noteon-57d5 noteoff-58"
362	class="noteon-57d5 noteoff-58"
364	class="noteon-58 noteoff-58d5"
366	class="noteon-58 noteoff-58d5"
367	class="noteon-58d5 noteoff-59"
368	class="noteon-58d5 noteoff-59"
369	class="noteon-59 noteoff-59d5"
370	class="noteon-59 noteoff-59d5"
371	class="noteon-59d5 noteoff-60"
372	class="noteon-59d5 noteoff-60"
373	class="noteon-59d5 noteoff-60"
375	class="noteon-60 noteoff-60d5"
378	class="noteon-60 noteoff-60d5"
376	class="noteon-60 noteoff-64"
381	class="noteon-60d5 noteoff-61"
380	class="noteon-60d5 noteoff-61"
383	class="noteon-61 noteoff-61d5"
382	class="noteon-61 noteoff-61d5"
385	class="noteon-61d5 noteoff-62"
384	class="noteon-61d5 noteoff-62"
388	class="noteon-62 noteoff-62d5"
386	class="noteon-62 noteoff-62d5"
390	class="noteon-62d5 noteoff-63"
389	class="noteon-62d5 noteoff-63"
391	class="noteon-63 noteoff-63d5"
392	class="noteon-63 noteoff-63d5"
394	class="noteon-63d5 noteoff-64"
393	class="noteon-63d5 noteoff-64"
397	class="noteon-64 noteoff-65d5"
398	class="noteon-64 noteoff-64"
399	class="noteon-65d5 noteoff-66"
400	class="noteon-66 noteoff-67d5"
401	class="noteon-67d5 noteoff-68"

