
209	class="noteon-32 noteoff-32d5"
211	class="noteon-32 noteoff-32d5"
212	class="noteon-32 noteoff-36"
213	class="noteon-32d5 noteoff-33"
214	class="noteon-32d5 noteoff-33"
215	class="noteon-33 noteoff-33d5"
216	class="noteon-33 noteoff-33d5"
217	class="noteon-33d5 noteoff-34"
218	class="noteon-33d5 noteoff-34"
219	class="noteon-34 noteoff-34d5"
221	class="noteon-34 noteoff-34d5"
222	class="noteon-34d5 noteoff-35"
223	class="noteon-34d5 noteoff-35"
224	class="noteon-35 noteoff-35d5"
225	class="noteon-35 noteoff-35d5"
227	class="noteon-35d5 noteoff-36"
226	class="noteon-35d5 noteoff-36"
230	class="noteon-36 noteoff-36d5"
231	class="noteon-36 noteoff-36d5"
232	class="noteon-36 noteoff-37d5"
234	class="noteon-36d5 noteoff-37"
235	class="noteon-36d5 noteoff-37"
236	class="noteon-37 noteoff-37d5"
237	class="noteon-37 noteoff-37d5"
238	class="noteon-36 noteoff-36"
241	class="noteon-37d5 noteoff-38"
239	class="noteon-37d5 noteoff-38"
240	class="noteon-37d5 noteoff-38"
244	class="noteon-38 noteoff-38d5"
245	class="noteon-38 noteoff-38d5"
242	class="noteon-38 noteoff-39d5"
247	class="noteon-38d5 noteoff-39"
246	class="noteon-38d5 noteoff-39"
248	class="noteon-39 noteoff-39d5"
249	class="noteon-39 noteoff-39d5"
250	class="noteon-39d5 noteoff-40"
251	class="noteon-39d5 noteoff-40"
252	class="noteon-39d5 noteoff-40"
254	class="noteon-40 noteoff-40d5"
256	class="noteon-40 noteoff-40d5"
257	class="noteon-40 noteoff-41"
259	class="noteon-40d5 noteoff-41"
260	class="noteon-40d5 noteoff-41"
261	class="noteon-41 noteoff-41d5"
262	class="noteon-41 noteoff-41d5"
263	class="noteon-41 noteoff-41d75"
265	class="noteon-41d5 noteoff-42"
266	class="noteon-41d5 noteoff-42"
267	class="noteon-41d75 noteoff-42"
270	class="noteon-42 noteoff-42d5"
272	class="noteon-42 noteoff-42d5"
268	class="noteon-42 noteoff-44"
273	class="noteon-42d5 noteoff-43"
274	class="noteon-42d5 noteoff-43"
275	class="noteon-43 noteoff-43d5"
276	class="noteon-43 noteoff-43d5"
277	class="noteon-43d5 noteoff-44"
278	class="noteon-43d5 noteoff-44"
280	class="noteon-44 noteoff-44d5"
282	class="noteon-44 noteoff-44d5"
281	class="noteon-44 noteoff-46"
285	class="noteon-44d5 noteoff-45"
284	class="noteon-44d5 noteoff-45"
287	class="noteon-45 noteoff-45d5"
286	class="noteon-45 noteoff-45d5"
289	class="noteon-45d5 noteoff-46"
288	class="noteon-45d5 noteoff-46"
292	class="noteon-46 noteoff-46d5"
290	class="noteon-46 noteoff-46d5"
295	class="noteon-46d5 noteoff-47"
294	class="noteon-46d5 noteoff-47"
297	class="noteon-47 noteoff-47d5"
296	class="noteon-47 noteoff-47d5"
299	class="noteon-47d5 noteoff-48"
298	class="noteon-47d5 noteoff-48"

