
412	class="noteon-68 noteoff-69"
414	class="noteon-69 noteoff-69d75"
416	class="noteon-69d75 noteoff-70"
419	class="noteon-70 noteoff-70d5"
420	class="noteon-70 noteoff-70d5"
423	class="noteon-70 noteoff-72"
424	class="noteon-70d5 noteoff-71"
425	class="noteon-70d5 noteoff-71"
427	class="noteon-71 noteoff-71d5"
426	class="noteon-71 noteoff-71d5"
428	class="noteon-71d5 noteoff-72"
429	class="noteon-71d5 noteoff-72"
431	class="noteon-72 noteoff-72d5"
432	class="noteon-72 noteoff-72d5"
434	class="noteon-72 noteoff-74"
435	class="noteon-72d5 noteoff-73"
436	class="noteon-72d5 noteoff-73"
437	class="noteon-73 noteoff-73d5"
438	class="noteon-73 noteoff-73d5"
440	class="noteon-73d5 noteoff-74"
441	class="noteon-73d5 noteoff-74"
446	class="noteon-76 noteoff-77d5"
448	class="noteon-76 noteoff-76"
449	class="noteon-77d5 noteoff-78"
450	class="noteon-78 noteoff-79d5"
452	class="noteon-79d5 noteoff-80"
456	class="noteon-80 noteoff-82"
454	class="noteon-80 noteoff-81"
457	class="noteon-81 noteoff-81d75"
459	class="noteon-81d75 noteoff-82"
464	class="noteon-82 noteoff-83"
461	class="noteon-82 noteoff-83"
462	class="noteon-82 noteoff-83"
463	class="noteon-82 noteoff-83"
466	class="noteon-83 noteoff-84"
467	class="noteon-83 noteoff-84"
468	class="noteon-83 noteoff-84"
469	class="noteon-83 noteoff-84"
470	class="noteon-83 noteoff-84"
474	class="noteon-84 noteoff-86"
473	class="noteon-84 noteoff-86"
475	class="noteon-84 noteoff-86"
476	class="noteon-84 noteoff-86"
477	class="noteon-84 noteoff-86"
480	class="noteon-86 noteoff-88"
479	class="noteon-86 noteoff-88"
481	class="noteon-86 noteoff-87d5"
482	class="noteon-86 noteoff-88"
484	class="noteon-86 noteoff-88"
483	class="noteon-86 noteoff-88"
485	class="noteon-87d5 noteoff-88"
488	class="noteon-88 noteoff-92"
487	class="noteon-88 noteoff-92"
489	class="noteon-88 noteoff-92"
490	class="noteon-88 noteoff-92"
491	class="noteon-88 noteoff-92"

