
132	class="noteon-16 noteoff-16d25"
136	class="noteon-16 noteoff-20"
135	class="noteon-16 noteoff-20"
138	class="noteon-16d25 noteoff-16d5"
139	class="noteon-16d5 noteoff-16d75"
140	class="noteon-16d75 noteoff-17"
142	class="noteon-17 noteoff-17d25"
143	class="noteon-17d25 noteoff-17d5"
144	class="noteon-17d5 noteoff-17d75"
145	class="noteon-17d75 noteoff-18"
146	class="noteon-18 noteoff-18d25"
148	class="noteon-18d25 noteoff-18d5"
149	class="noteon-18d5 noteoff-18d75"
150	class="noteon-18d75 noteoff-19"
151	class="noteon-19 noteoff-19d25"
153	class="noteon-19d25 noteoff-19d5"
154	class="noteon-19d5 noteoff-19d75"
155	class="noteon-19d75 noteoff-20"
159	class="noteon-20 noteoff-20d25"
160	class="noteon-20 noteoff-22"
161	class="noteon-20 noteoff-22"
162	class="noteon-20d25 noteoff-20d5"
163	class="noteon-20d5 noteoff-20d75"
164	class="noteon-20d75 noteoff-21"
166	class="noteon-21 noteoff-21d25"
167	class="noteon-21d25 noteoff-21d5"
168	class="noteon-21d5 noteoff-21d75"
169	class="noteon-21d75 noteoff-22"
170	class="noteon-22 noteoff-22d25"
173	class="noteon-22d25 noteoff-22d5"
174	class="noteon-22d5 noteoff-22d75"
175	class="noteon-22d75 noteoff-23"
177	class="noteon-23 noteoff-23d25"
178	class="noteon-23d25 noteoff-23d5"
179	class="noteon-23d5 noteoff-23d75"
180	class="noteon-23d75 noteoff-24"
183	class="noteon-24 noteoff-24d25"
188	class="noteon-24 noteoff-28"
189	class="noteon-24 noteoff-28"
187	class="noteon-24 noteoff-28"
185	class="noteon-24 noteoff-27d75"
190	class="noteon-24d25 noteoff-24d5"
191	class="noteon-24d5 noteoff-24d75"
192	class="noteon-24d75 noteoff-25"
194	class="noteon-25 noteoff-25d25"
195	class="noteon-25d25 noteoff-25d5"
196	class="noteon-25d5 noteoff-25d75"
197	class="noteon-25d75 noteoff-26"
199	class="noteon-26 noteoff-26d25"
200	class="noteon-26d25 noteoff-26d5"
201	class="noteon-26d5 noteoff-26d75"
202	class="noteon-26d75 noteoff-27"
204	class="noteon-27 noteoff-27d25"
205	class="noteon-27d25 noteoff-27d5"
206	class="noteon-27d5 noteoff-27d75"
208	class="noteon-27d75 noteoff-28"
207	class="noteon-27d75 noteoff-28"
211	class="noteon-28 noteoff-28d25"
216	class="noteon-28 noteoff-29"
215	class="noteon-28 noteoff-29"
214	class="noteon-28 noteoff-30"
217	class="noteon-28d25 noteoff-28d5"
218	class="noteon-28d5 noteoff-28d75"
219	class="noteon-28d75 noteoff-29"
221	class="noteon-29 noteoff-29d25"
223	class="noteon-29d25 noteoff-29d5"
224	class="noteon-29d5 noteoff-29d75"
225	class="noteon-29d75 noteoff-30"
226	class="noteon-30 noteoff-30d25"
229	class="noteon-30d25 noteoff-30d5"
230	class="noteon-30d5 noteoff-30d75"
231	class="noteon-30d75 noteoff-31"
232	class="noteon-31 noteoff-31d25"
234	class="noteon-31d25 noteoff-31d5"
235	class="noteon-31d5 noteoff-31d75"
236	class="noteon-31d75 noteoff-32"

