
14	class="noteon-0 noteoff-0d25"
18	class="noteon-0d25 noteoff-0d5"
19	class="noteon-0d5 noteoff-0d75"
20	class="noteon-0d75 noteoff-1"
22	class="noteon-1 noteoff-1d25"
23	class="noteon-1d25 noteoff-1d5"
24	class="noteon-1d5 noteoff-1d75"
25	class="noteon-1d75 noteoff-2"
26	class="noteon-2 noteoff-2d25"
28	class="noteon-2d25 noteoff-2d5"
29	class="noteon-2d5 noteoff-2d75"
30	class="noteon-2d75 noteoff-3"
32	class="noteon-3 noteoff-3d25"
33	class="noteon-3d25 noteoff-3d5"
34	class="noteon-3d5 noteoff-3d75"
35	class="noteon-3d75 noteoff-4"
38	class="noteon-4 noteoff-4d25"
41	class="noteon-4d25 noteoff-4d5"
43	class="noteon-4d5 noteoff-4d75"
44	class="noteon-4d75 noteoff-5"
45	class="noteon-5 noteoff-5d25"
47	class="noteon-5d25 noteoff-5d5"
48	class="noteon-5d5 noteoff-5d75"
49	class="noteon-5d75 noteoff-6"
50	class="noteon-6 noteoff-6d25"
52	class="noteon-6d25 noteoff-6d5"
53	class="noteon-6d5 noteoff-6d75"
54	class="noteon-6d75 noteoff-7"
55	class="noteon-7 noteoff-7d25"
57	class="noteon-7d25 noteoff-7d5"
58	class="noteon-7d5 noteoff-7d75"
59	class="noteon-7d75 noteoff-8"
61	class="noteon-8 noteoff-8d25"
64	class="noteon-8 noteoff-9d5"
65	class="noteon-8d25 noteoff-8d5"
66	class="noteon-8d5 noteoff-8d75"
67	class="noteon-8d75 noteoff-9"
69	class="noteon-9 noteoff-9d25"
70	class="noteon-9d25 noteoff-9d5"
72	class="noteon-9d5 noteoff-9d75"
73	class="noteon-9d75 noteoff-10"
74	class="noteon-10 noteoff-10d25"
76	class="noteon-10 noteoff-11d5"
77	class="noteon-10 noteoff-11d5"
79	class="noteon-10d25 noteoff-10d5"
80	class="noteon-10d5 noteoff-10d75"
81	class="noteon-10d75 noteoff-11"
83	class="noteon-11 noteoff-11d25"
84	class="noteon-11d25 noteoff-11d5"
86	class="noteon-11d5 noteoff-11d75"
89	class="noteon-11d75 noteoff-12"
88	class="noteon-11d75 noteoff-12"
87	class="noteon-11d75 noteoff-12"
95	class="noteon-12 noteoff-12d25"
91	class="noteon-12 noteoff-15"
92	class="noteon-12 noteoff-15"
96	class="noteon-12d25 noteoff-12d5"
97	class="noteon-12d5 noteoff-12d75"
98	class="noteon-12d75 noteoff-13"
99	class="noteon-13 noteoff-13d25"
101	class="noteon-13d25 noteoff-13d5"
102	class="noteon-13d5 noteoff-13d75"
104	class="noteon-13d75 noteoff-14"
105	class="noteon-14 noteoff-14d25"
108	class="noteon-14d25 noteoff-14d5"
109	class="noteon-14d5 noteoff-14d75"
110	class="noteon-14d75 noteoff-15"
112	class="noteon-15 noteoff-15d25"
114	class="noteon-15d25 noteoff-15d5"
116	class="noteon-15d5 noteoff-15d75"
118	class="noteon-15d75 noteoff-16"
119	class="noteon-15d75 noteoff-16"
120	class="noteon-15d75 noteoff-16"

