
616	class="noteon-80 noteoff-80d25"
618	class="noteon-80 noteoff-83d75"
620	class="noteon-80 noteoff-83d75"
619	class="noteon-80 noteoff-83d75"
621	class="noteon-80d25 noteoff-80d5"
622	class="noteon-80d5 noteoff-80d75"
623	class="noteon-80d75 noteoff-81"
624	class="noteon-81 noteoff-81d25"
626	class="noteon-81d25 noteoff-81d5"
627	class="noteon-81d5 noteoff-81d75"
628	class="noteon-81d75 noteoff-82"
630	class="noteon-82 noteoff-82d25"
631	class="noteon-82d25 noteoff-82d5"
632	class="noteon-82d5 noteoff-82d75"
633	class="noteon-82d75 noteoff-83"
634	class="noteon-83 noteoff-83d25"
636	class="noteon-83d25 noteoff-83d5"
637	class="noteon-83d5 noteoff-83d75"
639	class="noteon-83d75 noteoff-84"
638	class="noteon-83d75 noteoff-84"
642	class="noteon-84 noteoff-84d25"
644	class="noteon-84 noteoff-88"
645	class="noteon-84 noteoff-88"
646	class="noteon-84 noteoff-88"
647	class="noteon-84d25 noteoff-84d5"
648	class="noteon-84d5 noteoff-84d75"
649	class="noteon-84d75 noteoff-85"
650	class="noteon-85 noteoff-85d25"
652	class="noteon-85d25 noteoff-85d5"
653	class="noteon-85d5 noteoff-85d75"
654	class="noteon-85d75 noteoff-86"
656	class="noteon-86 noteoff-86d25"
657	class="noteon-86d25 noteoff-86d5"
658	class="noteon-86d5 noteoff-86d75"
659	class="noteon-86d75 noteoff-87"
661	class="noteon-87 noteoff-87d25"
662	class="noteon-87d25 noteoff-87d5"
663	class="noteon-87d5 noteoff-87d75"
664	class="noteon-87d75 noteoff-88"
670	class="noteon-88 noteoff-88d25"
667	class="noteon-88 noteoff-92"
668	class="noteon-88 noteoff-92"
666	class="noteon-88 noteoff-91d75"
673	class="noteon-88d25 noteoff-88d5"
674	class="noteon-88d5 noteoff-88d75"
675	class="noteon-88d75 noteoff-89"
676	class="noteon-89 noteoff-89d25"
678	class="noteon-89d25 noteoff-89d5"
679	class="noteon-89d5 noteoff-89d75"
680	class="noteon-89d75 noteoff-90"
682	class="noteon-90 noteoff-90d25"
683	class="noteon-90d25 noteoff-90d5"
684	class="noteon-90d5 noteoff-90d75"
685	class="noteon-90d75 noteoff-91"
687	class="noteon-91 noteoff-91d25"
688	class="noteon-91d25 noteoff-91d5"
689	class="noteon-91d5 noteoff-91d75"
691	class="noteon-91d75 noteoff-92"
690	class="noteon-91d75 noteoff-92"
694	class="noteon-92 noteoff-92d25"
698	class="noteon-92 noteoff-93"
696	class="noteon-92 noteoff-96"
697	class="noteon-92 noteoff-96"
700	class="noteon-92d25 noteoff-92d5"
701	class="noteon-92d5 noteoff-92d75"
702	class="noteon-92d75 noteoff-93"
704	class="noteon-93 noteoff-93d25"
706	class="noteon-93d25 noteoff-93d5"
707	class="noteon-93d5 noteoff-93d75"
708	class="noteon-93d75 noteoff-94"
709	class="noteon-94 noteoff-94d25"
712	class="noteon-94d25 noteoff-94d5"
713	class="noteon-94d5 noteoff-94d75"
714	class="noteon-94d75 noteoff-95"
715	class="noteon-95 noteoff-95d25"
717	class="noteon-95d25 noteoff-95d5"
718	class="noteon-95d5 noteoff-95d75"
719	class="noteon-95d75 noteoff-96"

