
375	class="noteon-48 noteoff-48d25"
377	class="noteon-48 noteoff-51"
376	class="noteon-48 noteoff-51"
380	class="noteon-48d25 noteoff-48d5"
381	class="noteon-48d5 noteoff-48d75"
382	class="noteon-48d75 noteoff-49"
384	class="noteon-49 noteoff-49d25"
385	class="noteon-49d25 noteoff-49d5"
386	class="noteon-49d5 noteoff-49d75"
387	class="noteon-49d75 noteoff-50"
388	class="noteon-50 noteoff-50d25"
390	class="noteon-50d25 noteoff-50d5"
391	class="noteon-50d5 noteoff-50d75"
392	class="noteon-50d75 noteoff-51"
393	class="noteon-51 noteoff-51d25"
396	class="noteon-51d25 noteoff-51d5"
398	class="noteon-51d5 noteoff-51d75"
400	class="noteon-51d75 noteoff-52"
402	class="noteon-51d75 noteoff-52"
401	class="noteon-51d75 noteoff-52"
404	class="noteon-52 noteoff-52d25"
407	class="noteon-52 noteoff-56"
408	class="noteon-52 noteoff-56"
409	class="noteon-52d25 noteoff-52d5"
410	class="noteon-52d5 noteoff-52d75"
411	class="noteon-52d75 noteoff-53"
412	class="noteon-53 noteoff-53d25"
414	class="noteon-53d25 noteoff-53d5"
415	class="noteon-53d5 noteoff-53d75"
416	class="noteon-53d75 noteoff-54"
417	class="noteon-54 noteoff-54d25"
419	class="noteon-54d25 noteoff-54d5"
420	class="noteon-54d5 noteoff-54d75"
421	class="noteon-54d75 noteoff-55"
423	class="noteon-55 noteoff-55d25"
424	class="noteon-55d25 noteoff-55d5"
425	class="noteon-55d5 noteoff-55d75"
426	class="noteon-55d75 noteoff-56"
431	class="noteon-56 noteoff-56d25"
430	class="noteon-56 noteoff-58"
429	class="noteon-56 noteoff-58"
433	class="noteon-56d25 noteoff-56d5"
434	class="noteon-56d5 noteoff-56d75"
435	class="noteon-56d75 noteoff-57"
437	class="noteon-57 noteoff-57d25"
438	class="noteon-57d25 noteoff-57d5"
439	class="noteon-57d5 noteoff-57d75"
440	class="noteon-57d75 noteoff-58"
442	class="noteon-58 noteoff-58d25"
444	class="noteon-58d25 noteoff-58d5"
445	class="noteon-58d5 noteoff-58d75"
446	class="noteon-58d75 noteoff-59"
447	class="noteon-59 noteoff-59d25"
449	class="noteon-59d25 noteoff-59d5"
450	class="noteon-59d5 noteoff-59d75"
451	class="noteon-59d75 noteoff-60"
456	class="noteon-60 noteoff-60d25"
453	class="noteon-60 noteoff-62"
455	class="noteon-60 noteoff-62"
459	class="noteon-60d25 noteoff-60d5"
460	class="noteon-60d5 noteoff-60d75"
461	class="noteon-60d75 noteoff-61"
462	class="noteon-61 noteoff-61d25"
464	class="noteon-61d25 noteoff-61d5"
465	class="noteon-61d5 noteoff-61d75"
466	class="noteon-61d75 noteoff-62"
468	class="noteon-62 noteoff-62d25"
469	class="noteon-62 noteoff-63d75"
470	class="noteon-62d25 noteoff-62d5"
471	class="noteon-62d5 noteoff-62d75"
472	class="noteon-62d75 noteoff-63"
474	class="noteon-63 noteoff-63d25"
475	class="noteon-63d25 noteoff-63d5"
476	class="noteon-63d5 noteoff-63d75"
478	class="noteon-63d75 noteoff-64"
477	class="noteon-63d75 noteoff-64"


