
492	class="noteon-64 noteoff-64d25"
493	class="noteon-64 noteoff-68"
494	class="noteon-64 noteoff-65d75"
495	class="noteon-64d25 noteoff-64d5"
496	class="noteon-64d5 noteoff-64d75"
497	class="noteon-64d75 noteoff-65"
498	class="noteon-65 noteoff-65d25"
500	class="noteon-65d25 noteoff-65d5"
502	class="noteon-64 noteoff-64"
503	class="noteon-65d5 noteoff-65d75"
504	class="noteon-64 noteoff-64"
505	class="noteon-65d75 noteoff-66"
506	class="noteon-65d75 noteoff-66"
509	class="noteon-66 noteoff-66d25"
507	class="noteon-66 noteoff-67d75"
510	class="noteon-66d25 noteoff-66d5"
511	class="noteon-66d5 noteoff-66d75"
512	class="noteon-66d75 noteoff-67"
514	class="noteon-67 noteoff-67d25"
515	class="noteon-67d25 noteoff-67d5"
516	class="noteon-67d5 noteoff-67d75"
518	class="noteon-67d75 noteoff-68"
517	class="noteon-67d75 noteoff-68"
520	class="noteon-68 noteoff-68d25"
525	class="noteon-68 noteoff-72"
527	class="noteon-68 noteoff-72"
528	class="noteon-68 noteoff-72"
531	class="noteon-68 noteoff-72"
532	class="noteon-68d25 noteoff-68d5"
533	class="noteon-68d5 noteoff-68d75"
534	class="noteon-68d75 noteoff-69"
535	class="noteon-69 noteoff-69d25"
537	class="noteon-69d25 noteoff-69d5"
538	class="noteon-69d5 noteoff-69d75"
539	class="noteon-69d75 noteoff-70"
540	class="noteon-70 noteoff-70d25"
542	class="noteon-70d25 noteoff-70d5"
543	class="noteon-70d5 noteoff-70d75"
544	class="noteon-70d75 noteoff-71"
545	class="noteon-71 noteoff-71d25"
547	class="noteon-71d25 noteoff-71d5"
548	class="noteon-71d5 noteoff-71d75"
549	class="noteon-71d75 noteoff-72"
553	class="noteon-72 noteoff-72d25"
557	class="noteon-72 noteoff-76"
556	class="noteon-72 noteoff-76"
555	class="noteon-72 noteoff-76"
554	class="noteon-72 noteoff-76"
558	class="noteon-72d25 noteoff-72d5"
559	class="noteon-72d5 noteoff-72d75"
560	class="noteon-72d75 noteoff-73"
561	class="noteon-73 noteoff-73d25"
563	class="noteon-73d25 noteoff-73d5"
564	class="noteon-73d5 noteoff-73d75"
565	class="noteon-73d75 noteoff-74"
566	class="noteon-74 noteoff-74d25"
568	class="noteon-74d25 noteoff-74d5"
569	class="noteon-74d5 noteoff-74d75"
570	class="noteon-74d75 noteoff-75"
572	class="noteon-75 noteoff-75d25"
573	class="noteon-75d25 noteoff-75d5"
574	class="noteon-75d5 noteoff-75d75"
575	class="noteon-75d75 noteoff-76"
578	class="noteon-76 noteoff-76d25"
581	class="noteon-76 noteoff-80"
580	class="noteon-76 noteoff-80"
583	class="noteon-76 noteoff-78"
584	class="noteon-76d25 noteoff-76d5"
585	class="noteon-76d5 noteoff-76d75"
586	class="noteon-76d75 noteoff-77"
588	class="noteon-77 noteoff-77d25"
589	class="noteon-77d25 noteoff-77d5"
590	class="noteon-77d5 noteoff-77d75"
591	class="noteon-77d75 noteoff-78"
592	class="noteon-78 noteoff-79d75"
594	class="noteon-78 noteoff-78d25"
595	class="noteon-78d25 noteoff-78d5"
596	class="noteon-78d5 noteoff-78d75"
597	class="noteon-78d75 noteoff-79"
599	class="noteon-79 noteoff-79d25"
600	class="noteon-79d25 noteoff-79d5"
601	class="noteon-79d5 noteoff-79d75"
602	class="noteon-79d75 noteoff-80"
603	class="noteon-79d75 noteoff-80"

