
730	class="noteon-96 noteoff-96d25"
735	class="noteon-96 noteoff-100"
736	class="noteon-96 noteoff-100"
733	class="noteon-96 noteoff-99d75"
737	class="noteon-96d25 noteoff-96d5"
738	class="noteon-96d5 noteoff-96d75"
739	class="noteon-96d75 noteoff-97"
741	class="noteon-97 noteoff-97d25"
742	class="noteon-97d25 noteoff-97d5"
743	class="noteon-97d5 noteoff-97d75"
744	class="noteon-97d75 noteoff-98"
745	class="noteon-98 noteoff-98d25"
747	class="noteon-98d25 noteoff-98d5"
748	class="noteon-98d5 noteoff-98d75"
749	class="noteon-98d75 noteoff-99"
750	class="noteon-99 noteoff-99d25"
752	class="noteon-99d25 noteoff-99d5"
753	class="noteon-99d5 noteoff-99d75"
755	class="noteon-99d75 noteoff-100"
754	class="noteon-99d75 noteoff-100"
757	class="noteon-100 noteoff-100d25"
761	class="noteon-100 noteoff-104"
760	class="noteon-100 noteoff-104"
759	class="noteon-100 noteoff-104"
763	class="noteon-100d25 noteoff-100d5"
764	class="noteon-100d5 noteoff-100d75"
765	class="noteon-100d75 noteoff-101"
766	class="noteon-101 noteoff-101d25"
768	class="noteon-101d25 noteoff-101d5"
769	class="noteon-101d5 noteoff-101d75"
770	class="noteon-101d75 noteoff-102"
772	class="noteon-102 noteoff-102d25"
773	class="noteon-102d25 noteoff-102d5"
774	class="noteon-102d5 noteoff-102d75"
775	class="noteon-102d75 noteoff-103"
777	class="noteon-103 noteoff-103d25"
778	class="noteon-103d25 noteoff-103d5"
779	class="noteon-103d5 noteoff-103d75"
780	class="noteon-103d75 noteoff-104"
784	class="noteon-104 noteoff-104d25"
786	class="noteon-104d25 noteoff-104d5"
787	class="noteon-104d5 noteoff-104d75"
788	class="noteon-104d75 noteoff-105"
789	class="noteon-105 noteoff-105d25"
791	class="noteon-105d25 noteoff-105d5"
792	class="noteon-105d5 noteoff-105d75"
793	class="noteon-105d75 noteoff-106"
795	class="noteon-106 noteoff-106d25"
796	class="noteon-106d25 noteoff-106d5"
797	class="noteon-106d5 noteoff-106d75"
798	class="noteon-106d75 noteoff-107"
800	class="noteon-107 noteoff-107d25"
801	class="noteon-107d25 noteoff-107d5"
802	class="noteon-107d5 noteoff-107d75"
803	class="noteon-107d75 noteoff-108"
809	class="noteon-108 noteoff-108d25"
811	class="noteon-108 noteoff-108d25"
814	class="noteon-108d25 noteoff-108d5"
813	class="noteon-108d25 noteoff-108d5"
815	class="noteon-108d5 noteoff-108d75"
816	class="noteon-108d5 noteoff-108d75"
817	class="noteon-108d75 noteoff-109"
818	class="noteon-108d75 noteoff-109"
819	class="noteon-109 noteoff-109d25"
821	class="noteon-109 noteoff-109d25"
823	class="noteon-109d25 noteoff-109d5"
824	class="noteon-109d25 noteoff-109d5"
825	class="noteon-109d5 noteoff-109d75"
826	class="noteon-109d5 noteoff-109d75"
827	class="noteon-109d75 noteoff-110"
828	class="noteon-109d75 noteoff-110"
829	class="noteon-110 noteoff-110d25"
831	class="noteon-110 noteoff-110d25"
833	class="noteon-110d25 noteoff-110d5"
834	class="noteon-110d25 noteoff-110d5"
835	class="noteon-110d5 noteoff-110d75"
836	class="noteon-110d5 noteoff-110d75"
838	class="noteon-110d75 noteoff-111"
837	class="noteon-110d75 noteoff-111"
840	class="noteon-111 noteoff-111d25"
841	class="noteon-111 noteoff-111d25"
843	class="noteon-111d25 noteoff-111d5"
844	class="noteon-111d25 noteoff-111d5"
846	class="noteon-111d5 noteoff-111d75"
845	class="noteon-111d5 noteoff-111d75"
848	class="noteon-111d75 noteoff-112"
847	class="noteon-111d75 noteoff-112"

