
247	class="noteon-32 noteoff-32d25"
252	class="noteon-32 noteoff-35d75"
253	class="noteon-32 noteoff-35d75"
251	class="noteon-32 noteoff-35d75"
250	class="noteon-32 noteoff-35d75"
254	class="noteon-32d25 noteoff-32d5"
255	class="noteon-32d5 noteoff-32d75"
256	class="noteon-32d75 noteoff-33"
258	class="noteon-33 noteoff-33d25"
259	class="noteon-33d25 noteoff-33d5"
260	class="noteon-33d5 noteoff-33d75"
261	class="noteon-33d75 noteoff-34"
263	class="noteon-34 noteoff-34d25"
264	class="noteon-34d25 noteoff-34d5"
265	class="noteon-34d5 noteoff-34d75"
266	class="noteon-34d75 noteoff-35"
268	class="noteon-35 noteoff-35d25"
269	class="noteon-35d25 noteoff-35d5"
270	class="noteon-35d5 noteoff-35d75"
272	class="noteon-35d75 noteoff-36"
271	class="noteon-35d75 noteoff-36"
277	class="noteon-36 noteoff-36d25"
279	class="noteon-36 noteoff-37"
280	class="noteon-36 noteoff-37"
278	class="noteon-36 noteoff-38"
281	class="noteon-36d25 noteoff-36d5"
282	class="noteon-36d5 noteoff-36d75"
283	class="noteon-36d75 noteoff-37"
284	class="noteon-37 noteoff-37d25"
286	class="noteon-37d25 noteoff-37d5"
287	class="noteon-37d5 noteoff-37d75"
288	class="noteon-37d75 noteoff-38"
289	class="noteon-38 noteoff-38d25"
292	class="noteon-38d25 noteoff-38d5"
293	class="noteon-38d5 noteoff-38d75"
294	class="noteon-38d75 noteoff-39"
295	class="noteon-39 noteoff-39d25"
297	class="noteon-39d25 noteoff-39d5"
298	class="noteon-39d5 noteoff-39d75"
299	class="noteon-39d75 noteoff-40"
304	class="noteon-40 noteoff-40d25"
305	class="noteon-40d25 noteoff-40d5"
306	class="noteon-40d5 noteoff-40d75"
307	class="noteon-40d75 noteoff-41"
309	class="noteon-41 noteoff-41d25"
311	class="noteon-41d25 noteoff-41d5"
313	class="noteon-41d5 noteoff-41d75"
316	class="noteon-41d75 noteoff-42"
315	class="noteon-39d75 noteoff-40"
314	class="noteon-39d75 noteoff-40"
319	class="noteon-42 noteoff-42d25"
321	class="noteon-40 noteoff-41d5"
320	class="noteon-40 noteoff-41d5"
322	class="noteon-42d25 noteoff-42d5"
323	class="noteon-42d5 noteoff-42d75"
324	class="noteon-42d75 noteoff-43"
325	class="noteon-43 noteoff-43d25"
327	class="noteon-43d25 noteoff-43d5"
329	class="noteon-43d5 noteoff-43d75"
332	class="noteon-43d75 noteoff-44"
333	class="noteon-41d75 noteoff-42"
331	class="noteon-41d75 noteoff-42"
337	class="noteon-44 noteoff-44d25"
338	class="noteon-42 noteoff-43d5"
339	class="noteon-44d25 noteoff-44d5"
340	class="noteon-44d5 noteoff-44d75"
341	class="noteon-44d75 noteoff-45"
342	class="noteon-45 noteoff-45d25"
344	class="noteon-45d25 noteoff-45d5"
345	class="noteon-45d5 noteoff-45d75"
347	class="noteon-45d75 noteoff-46"
348	class="noteon-46 noteoff-46d25"
350	class="noteon-44 noteoff-45d5"
351	class="noteon-44 noteoff-45d5"
352	class="noteon-46d25 noteoff-46d5"
353	class="noteon-46d5 noteoff-46d75"
354	class="noteon-46d75 noteoff-47"
355	class="noteon-47 noteoff-47d25"
357	class="noteon-47d25 noteoff-47d5"
359	class="noteon-47d5 noteoff-47d75"
363	class="noteon-47d75 noteoff-48"
361	class="noteon-45d75 noteoff-46"
362	class="noteon-45d75 noteoff-46"

