
861	class="noteon-112 noteoff-112d25"
862	class="noteon-112 noteoff-112d25"
866	class="noteon-112d25 noteoff-112d5"
865	class="noteon-112d25 noteoff-112d5"
868	class="noteon-112d5 noteoff-112d75"
867	class="noteon-112d5 noteoff-112d75"
870	class="noteon-112d75 noteoff-113"
869	class="noteon-112d75 noteoff-113"
873	class="noteon-113 noteoff-113d25"
871	class="noteon-113 noteoff-113d25"
875	class="noteon-113d25 noteoff-113d5"
876	class="noteon-113d25 noteoff-113d5"
877	class="noteon-113d5 noteoff-113d75"
878	class="noteon-113d5 noteoff-113d75"
879	class="noteon-113d75 noteoff-114"
880	class="noteon-113d75 noteoff-114"
881	class="noteon-114 noteoff-114d25"
884	class="noteon-114 noteoff-114d25"
885	class="noteon-114d25 noteoff-114d5"
886	class="noteon-114d25 noteoff-114d5"
887	class="noteon-114d5 noteoff-114d75"
888	class="noteon-114d5 noteoff-114d75"
889	class="noteon-114d75 noteoff-115"
890	class="noteon-114d75 noteoff-115"
892	class="noteon-115 noteoff-115d25"
894	class="noteon-115 noteoff-115d25"
895	class="noteon-115d25 noteoff-115d5"
896	class="noteon-115d25 noteoff-115d5"
897	class="noteon-115d5 noteoff-115d75"
898	class="noteon-115d5 noteoff-115d75"
900	class="noteon-115d75 noteoff-116"
899	class="noteon-115d75 noteoff-116"
902	class="noteon-116 noteoff-116d25"
904	class="noteon-116 noteoff-116d25"
907	class="noteon-116d25 noteoff-116d5"
906	class="noteon-116d25 noteoff-116d5"
909	class="noteon-116d5 noteoff-116d75"
908	class="noteon-116d5 noteoff-116d75"
911	class="noteon-116d75 noteoff-117"
910	class="noteon-116d75 noteoff-117"
913	class="noteon-117 noteoff-117d25"
912	class="noteon-117 noteoff-117d25"
917	class="noteon-117d25 noteoff-117d5"
916	class="noteon-117d25 noteoff-117d5"
919	class="noteon-117d5 noteoff-117d75"
918	class="noteon-117d5 noteoff-117d75"
920	class="noteon-117d75 noteoff-118"
921	class="noteon-117d75 noteoff-118"
924	class="noteon-118 noteoff-118d25"
922	class="noteon-118 noteoff-118d25"
926	class="noteon-118d25 noteoff-118d5"
927	class="noteon-118d25 noteoff-118d5"
928	class="noteon-118d5 noteoff-118d75"
929	class="noteon-118d5 noteoff-118d75"
931	class="noteon-118d75 noteoff-119"
930	class="noteon-118d75 noteoff-119"
933	class="noteon-119 noteoff-119d25"
932	class="noteon-119 noteoff-119d25"
936	class="noteon-119d25 noteoff-119d5"
937	class="noteon-119d25 noteoff-119d5"
938	class="noteon-119d5 noteoff-119d75"
939	class="noteon-119d5 noteoff-119d75"
941	class="noteon-119d75 noteoff-120"
940	class="noteon-119d75 noteoff-120"
945	class="noteon-120 noteoff-120d25"
947	class="noteon-120 noteoff-120d25"
948	class="noteon-120d25 noteoff-120d5"
949	class="noteon-120d25 noteoff-120d5"
950	class="noteon-120d5 noteoff-120d75"
951	class="noteon-120d5 noteoff-120d75"
953	class="noteon-120d75 noteoff-121"
952	class="noteon-120d75 noteoff-121"
956	class="noteon-121 noteoff-121d25"
955	class="noteon-121 noteoff-121d25"
959	class="noteon-121d25 noteoff-121d5"
958	class="noteon-121d25 noteoff-121d5"
961	class="noteon-121d5 noteoff-121d75"
960	class="noteon-121d5 noteoff-121d75"
963	class="noteon-121d75 noteoff-122"
962	class="noteon-121d75 noteoff-122"
965	class="noteon-122 noteoff-122d25"
966	class="noteon-122 noteoff-122d25"
970	class="noteon-122d25 noteoff-122d5"
969	class="noteon-122d25 noteoff-122d5"
972	class="noteon-122d5 noteoff-122d75"
971	class="noteon-122d5 noteoff-122d75"
974	class="noteon-122d75 noteoff-123"
973	class="noteon-122d75 noteoff-123"
978	class="noteon-123 noteoff-123d25"
976	class="noteon-123 noteoff-123d25"
981	class="noteon-123d25 noteoff-123d5"
980	class="noteon-123d25 noteoff-123d5"
983	class="noteon-123d5 noteoff-123d75"
982	class="noteon-123d5 noteoff-123d75"
985	class="noteon-123d75 noteoff-124"
984	class="noteon-123d75 noteoff-124"
988	class="noteon-124 noteoff-125"
987	class="noteon-124 noteoff-125"
1000	class="noteon-126 noteoff-128"
999	class="noteon-126 noteoff-128"
998	class="noteon-126 noteoff-128"
997	class="noteon-126 noteoff-128"
994	class="noteon-126 noteoff-128"
995	class="noteon-126 noteoff-128"
996	class="noteon-126 noteoff-128"
1005	class="noteon-128 noteoff-130"
1004	class="noteon-128 noteoff-130"
1003	class="noteon-128 noteoff-130"
1006	class="noteon-128 noteoff-130"
1007	class="noteon-128 noteoff-130"
1008	class="noteon-128 noteoff-130"
1009	class="noteon-128 noteoff-130"

